<svg xmlns="http://www.w3.org/2000/svg" viewBox="0 0 73.46 78.67"><defs><style>.cls-1{fill:#333;}</style></defs><title>Ativo 4</title><g id="Camada_2" data-name="Camada 2"><g id="Camada_1-2" data-name="Camada 1"><path class="cls-1" d="M21.37,10.91a7.61,7.61,0,0,1-.63-3.11,7.41,7.41,0,0,1,.63-3A7.94,7.94,0,0,1,25.52.63,7.61,7.61,0,0,1,28.63,0a7.41,7.41,0,0,1,3,.63,8.62,8.62,0,0,1,2.52,1.68,7.2,7.2,0,0,1,1.68,2.48,7.86,7.86,0,0,1,.59,3,7.68,7.68,0,0,1-2.27,5.58,7.47,7.47,0,0,1-5.54,2.31,7.61,7.61,0,0,1-3.11-.63,7.94,7.94,0,0,1-4.16-4.16Zm30.52,43a3.13,3.13,0,0,0-2.56.42,3.44,3.44,0,0,0-1.47,2.1,12.28,12.28,0,0,1-.76,2.43A19,19,0,0,1,44,64.23a21.51,21.51,0,0,1-4.53,4.2,21.15,21.15,0,0,1-12,3.69,20.51,20.51,0,0,1-8.06-1.6,21.61,21.61,0,0,1-6.59-4.28,20,20,0,0,1-4.45-6.34,19.42,19.42,0,0,1-.67-13.85,20.26,20.26,0,0,1,2.73-5.37,20.68,20.68,0,0,1,4.2-4.37,21.63,21.63,0,0,1,5.46-3.06,3.18,3.18,0,0,0,2-4.2,3.18,3.18,0,0,0-1.81-1.81,3.75,3.75,0,0,0-2.64-.13,28.47,28.47,0,0,0-7.22,4,27.57,27.57,0,0,0-5.63,5.79,26,26,0,0,0-3.61,7.14,25.56,25.56,0,0,0-1.26,8A24.87,24.87,0,0,0,2.18,62.42,27.2,27.2,0,0,0,8.1,70.86a28.09,28.09,0,0,0,8.73,5.71,27.35,27.35,0,0,0,10.7,2.1,28,28,0,0,0,8.4-1.26,28.73,28.73,0,0,0,7.47-3.57,26.63,26.63,0,0,0,6-5.58,25.42,25.42,0,0,0,4-7.22,21.43,21.43,0,0,0,1-3.19,3,3,0,0,0-.42-2.52A3.53,3.53,0,0,0,51.89,53.9ZM73,66.75,60.2,44.41a5.26,5.26,0,0,0-2-2.27,5.58,5.58,0,0,0-3-.84H40.89l-1.68-8.23H50.38a3.83,3.83,0,0,0,1.93-.34,3,3,0,0,0,1.43-1.34,3.3,3.3,0,0,0-1.34-4.53,2.79,2.79,0,0,0-1.51-.42H37.78L37,22.58a.33.33,0,0,0,0-.21.33.33,0,0,1,0-.21l-.08-.25a6.23,6.23,0,0,0-2.22-3.19,6.09,6.09,0,0,0-3.82-1.26,6.24,6.24,0,0,0-4.53,1.81,5.83,5.83,0,0,0-1.85,4.32,2.18,2.18,0,0,0,.08.67h-.08L29,46.51a5,5,0,0,0,1.85,3.15,5.45,5.45,0,0,0,3.53,1.22,4,4,0,0,0,.92-.08H54.4L65.49,70.11A4.19,4.19,0,0,0,67,71.87a4.14,4.14,0,0,0,2.35.67,4,4,0,0,0,2.9-1.18,3.82,3.82,0,0,0,1.22-2.85A3.88,3.88,0,0,0,73,66.75Z"/></g></g></svg>