<svg xmlns="http://www.w3.org/2000/svg" viewBox="0 0 68.77 55.01"><defs><style>.cls-1{fill:#333;}</style></defs><title>Ativo 3</title><g id="Camada_2" data-name="Camada 2"><g id="Camada_1-2" data-name="Camada 1"><path class="cls-1" d="M61.14.74a2.53,2.53,0,0,0-3.58,0l-9,9c-11.13-5.05-23-3.82-34.33,3.58A57.36,57.36,0,0,0,.49,26,2.55,2.55,0,0,0,.56,29.1a62,62,0,0,0,15,13.68l-7.9,7.9a2.53,2.53,0,1,0,3.56,3.58l50-49.95A2.54,2.54,0,0,0,61.14.74Zm-33,29.43a6.57,6.57,0,0,1-.55-2.67,6.8,6.8,0,0,1,9.47-6.26ZM40.79,17.53A11.84,11.84,0,0,0,24.43,33.89L19.22,39.1A53.15,53.15,0,0,1,5.81,27.46,54.05,54.05,0,0,1,17,17.53c9.35-6.09,18.65-7.41,27.72-3.94Z"/><path class="cls-1" d="M68.21,25.9A67.66,67.66,0,0,0,57.51,15.2a2.53,2.53,0,1,0-3.13,4A60.35,60.35,0,0,1,63,27.53a55.38,55.38,0,0,1-9.26,8.6c-8.43,6.13-17,8.35-25.3,6.58a2.52,2.52,0,1,0-1,4.94,31.45,31.45,0,0,0,6.57.69,33.39,33.39,0,0,0,10-1.56,44.55,44.55,0,0,0,12.9-6.67A58,58,0,0,0,68.28,29,2.55,2.55,0,0,0,68.21,25.9Z"/></g></g></svg>