<?xml version="1.0" encoding="utf-8"?>
<!-- Generator: Adobe Illustrator 21.0.0, SVG Export Plug-In . SVG Version: 6.00 Build 0)  -->
<svg version="1.1" id="Camada_1" xmlns="http://www.w3.org/2000/svg" xmlns:xlink="http://www.w3.org/1999/xlink" x="0px" y="0px"
	 viewBox="0 0 70 70" style="enable-background:new 0 0 70 70;" xml:space="preserve">
<style type="text/css">
	.st0{fill:#333333;}
</style>
<title>Ativo 3</title>
<g id="Camada_2">
	<g id="Camada_1-2">
		<path class="st0" d="M61.8,8.2c-1-1-2.6-1-3.6,0c0,0,0,0,0,0l-9,9c-11.1-5.1-23-3.8-34.3,3.6C9.6,24.3,5,28.5,1.1,33.5
			c-0.7,0.9-0.7,2.2,0.1,3.1c4.2,5.4,9.3,10,15,13.7l-7.9,7.9c-1.1,0.9-1.2,2.5-0.2,3.6c0.9,1.1,2.5,1.2,3.6,0.2
			c0.1-0.1,0.2-0.2,0.2-0.2l50-50C62.8,10.8,62.8,9.2,61.8,8.2z M28.8,37.7c-0.4-0.8-0.6-1.8-0.5-2.7c0-3.8,3-6.8,6.8-6.8
			c0.9,0,1.8,0.2,2.7,0.5L28.8,37.7z M41.4,25c-5.5-3.5-12.8-1.9-16.4,3.6c-2.5,3.9-2.5,8.9,0,12.8l-5.2,5.2
			c-5.1-3.1-9.6-7-13.4-11.6c3.3-3.8,7-7.2,11.2-9.9c9.4-6.1,18.7-7.4,27.7-3.9L41.4,25z"/>
		<path class="st0" d="M68.8,33.4c-3.2-4-6.7-7.5-10.7-10.7c-1.1-0.9-2.7-0.7-3.6,0.4c-0.9,1.1-0.7,2.7,0.4,3.6
			c3.1,2.5,6,5.3,8.6,8.3c-2.7,3.2-5.9,6.1-9.3,8.6c-8.4,6.1-17,8.4-25.3,6.6c-1.4-0.3-2.7,0.6-3,2c-0.3,1.4,0.6,2.7,2,3
			c2.2,0.5,4.4,0.7,6.6,0.7c3.4,0,6.8-0.5,10-1.6c4.6-1.5,9-3.8,12.9-6.7c4.3-3.2,8.1-6.9,11.4-11.1C69.6,35.6,69.5,34.3,68.8,33.4z
			"/>
	</g>
</g>
</svg>
