<svg xmlns="http://www.w3.org/2000/svg" viewBox="0 0 40.55 97.87"><defs><style>.cls-1{fill:#333;}</style></defs><title>Ativo 2</title><g id="Camada_2" data-name="Camada 2"><g id="Camada_1-2" data-name="Camada 1"><path class="cls-1" d="M18.49,18.89A9.45,9.45,0,1,0,9,9.45,9.45,9.45,0,0,0,18.49,18.89Z"/><path class="cls-1" d="M40.55,50.07c0-4.7-4.87-12.37-10.29-13.44l-.31-.18h0V33.88a11.69,11.69,0,0,0-4.81-9.45,5.3,5.3,0,0,0-1-.57l-5.65-2.48h0A3.63,3.63,0,0,0,14,22.65L1.33,41.24a3.74,3.74,0,0,0-.67,2.35A3.64,3.64,0,0,0,3,46.75l19,7.1a3.63,3.63,0,0,0,4.68-2.16A3.69,3.69,0,0,0,24.46,47L9.9,41.57l5-7.41-2.42,6.57,12.62,4.72a5.33,5.33,0,1,1-3.74,10L6,49.7l-5.77,18a5.52,5.52,0,0,0,5.25,7.2h8.19V93.09a4.78,4.78,0,0,0,5,4.78A4.85,4.85,0,0,0,23.27,93v-18h8.19a5.52,5.52,0,0,0,5.25-7.2l-2-6.38C38.16,59.34,40.55,55.17,40.55,50.07Z"/></g></g></svg>