<?xml version="1.0" encoding="utf-8"?>
<!-- Generator: Adobe Illustrator 21.0.0, SVG Export Plug-In . SVG Version: 6.00 Build 0)  -->
<svg version="1.1" id="Camada_1" xmlns="http://www.w3.org/2000/svg" xmlns:xlink="http://www.w3.org/1999/xlink" x="0px" y="0px"
	 viewBox="0 0 100 100" style="enable-background:new 0 0 100 100;" xml:space="preserve">
<style type="text/css">
	.st0{fill:#333333;}
</style>
<title>Ativo 2</title>
<g id="Camada_2">
	<g id="Camada_1-2">
		<path class="st0" d="M48.2,20c5.2,0,9.4-4.3,9.4-9.5S53.4,1,48.1,1.1c-5.2,0-9.4,4.3-9.4,9.5C38.7,15.7,43,20,48.2,20
			C48.2,20,48.2,20,48.2,20z"/>
		<path class="st0" d="M70.3,51.1c0-4.7-4.9-12.4-10.3-13.4l-0.3-0.2l0,0v-2.6c0-3.7-1.8-7.3-4.8-9.5c-0.3-0.2-0.6-0.4-1-0.6
			l-5.6-2.5l0,0c-1.6-0.7-3.5-0.2-4.5,1.3L31.1,42.3c-0.5,0.7-0.7,1.5-0.7,2.3c0.1,1.4,1,2.7,2.3,3.2l19,7.1c1.9,0.7,4-0.3,4.7-2.1
			c0,0,0,0,0,0c0.7-1.9-0.3-4-2.2-4.7l-14.6-5.4l5-7.4l-2.4,6.6l12.6,4.7c2.8,1,4.2,4.1,3.1,6.9c-1,2.8-4.1,4.2-6.9,3.1l-15.4-5.8
			l-5.8,18c-0.9,2.9,0.7,6,3.6,6.9c0.5,0.2,1.1,0.3,1.7,0.3h8.2v18.2c0,2.6,2.1,4.8,4.8,4.8c0.1,0,0.2,0,0.2,0
			c2.6-0.1,4.6-2.3,4.6-4.9v-18h8.2c3,0,5.5-2.5,5.5-5.5c0-0.6-0.1-1.1-0.3-1.7l-2-6.4C67.9,60.4,70.3,56.2,70.3,51.1z"/>
	</g>
</g>
</svg>
