<?xml version="1.0" encoding="utf-8"?>
<!-- Generator: Adobe Illustrator 21.0.0, SVG Export Plug-In . SVG Version: 6.00 Build 0)  -->
<svg version="1.1" xmlns="http://www.w3.org/2000/svg" xmlns:xlink="http://www.w3.org/1999/xlink" x="0px" y="0px"
	 viewBox="0 0 480 640" style="enable-background:new 0 0 480 640;" xml:space="preserve">
<style type="text/css">
	.st0{fill:#333333;}
	.st1{fill:#333333;stroke:#000000;stroke-miterlimit:10;}
	.st2{fill:#3399CC;}
	.st3{fill:#FFFFFF;}
	.st4{fill:#999999;}
</style>
<g id="Camada_1">
	<g>
		<g>
			<path class="st0" d="M61.2,82.9l-9.6-23c-0.6-1.3-2.1-2.8-3.5-3.4l-3.6-1.3h0l-2.9-1.1c-0.4-0.1-0.7-0.2-1.1-0.2
				c-1.3,0-2.6,0.8-3,2.1L25.8,86.9c-0.4,0.9-0.2,1.9,0.2,2.7c0,0.1,0.1,0.3,0.1,0.4l6.6,13.6c0.6,1.2,0.6,3.1,0.2,4.3l-6.6,17.3
				c-0.4,1-0.3,2.1,0.2,2.9c0.5,0.8,1.5,1.2,2.6,1.2h3.4c2,0,4.1-1.5,4.8-3.3l6.6-17.3c0.6-1.7,0.6-4.4-0.1-6l-5.1-11.9l8.1-21.6
				l5.3,12.4c-1.9,1.1-3.2,3.1-3.2,5.4c0,0.6,0.5,1.1,1.1,1.1c0.6,0,1.1-0.5,1.1-1.1c0-1.4,0.8-2.7,1.9-3.4l0.2,0.6
				c0.6,1.4,2.2,2.5,3.8,2.5c0.1,0,0.2,0,0.3,0l1.6-0.1c0.1,0,0.1,0,0.2,0c0,0.2,0.1,0.3,0.1,0.5v41.8c0,0.6,0.5,1.1,1.1,1.1
				s1.1-0.5,1.1-1.1V87c0-0.6-0.1-1.2-0.3-1.8C61.5,84.6,61.5,83.7,61.2,82.9z"/>
			<path class="st0" d="M48.7,52.2c1.9,0.7,3.9,0.9,6,0.5c3.1-0.6,5.9-2.6,7.4-5.3c3.4-6,0.5-13.4-5.7-15.8c-2.2-0.8-4.6-0.9-7-0.3
				c-2.5,0.7-4.7,2.4-6.1,4.6c-2.1,3.3-2.3,7.2-0.8,10.6C43.7,49.2,45.9,51.2,48.7,52.2z"/>
		</g>
		<path class="st1" d="M79.6,117.4"/>
		<path class="st1" d="M80.7,63.6"/>
	</g>
	<g>
		<g>
			<path class="st0" d="M37.8,163.9c-0.4-1-0.6-2-0.6-3.1c0-1.1,0.2-2.1,0.6-3c0.4-1,1-1.8,1.7-2.5c0.7-0.7,1.5-1.3,2.5-1.7
				c1-0.4,2-0.6,3.1-0.6c1.1,0,2.1,0.2,3,0.6c1,0.4,1.8,1,2.5,1.7c0.7,0.7,1.3,1.5,1.7,2.5c0.4,1,0.6,2,0.6,3c0,2.2-0.8,4-2.3,5.6
				s-3.4,2.3-5.5,2.3c-1.1,0-2.2-0.2-3.1-0.6c-1-0.4-1.8-1-2.5-1.7C38.8,165.7,38.2,164.8,37.8,163.9z M68.3,206.9
				c-1-0.2-1.8-0.1-2.6,0.4s-1.2,1.2-1.5,2.1c-0.2,0.8-0.4,1.7-0.8,2.4c-0.7,2-1.7,3.8-3.1,5.4c-1.3,1.6-2.8,3-4.5,4.2
				c-1.7,1.2-3.6,2.1-5.6,2.7c-2,0.6-4.2,1-6.3,1c-2.9,0-5.5-0.5-8.1-1.6c-2.5-1.1-4.7-2.5-6.6-4.3c-1.9-1.8-3.4-3.9-4.4-6.3
				c-1.1-2.4-1.6-5.1-1.6-7.9c0-2.1,0.3-4.1,1-6s1.6-3.7,2.7-5.4c1.2-1.7,2.6-3.1,4.2-4.4c1.6-1.3,3.4-2.3,5.5-3.1
				c0.9-0.3,1.5-0.8,1.9-1.7c0.4-0.8,0.4-1.7,0.1-2.5s-0.9-1.4-1.8-1.8c-0.9-0.4-1.7-0.4-2.6-0.1c-2.6,1-5,2.4-7.2,4
				c-2.2,1.7-4.1,3.6-5.6,5.8c-1.6,2.2-2.8,4.6-3.6,7.1c-0.8,2.6-1.3,5.2-1.3,8c0,3.7,0.7,7.2,2.2,10.4c1.5,3.2,3.4,6,5.9,8.4
				c2.5,2.4,5.4,4.3,8.7,5.7c3.3,1.4,6.9,2.1,10.7,2.1c2.9,0,5.7-0.4,8.4-1.3c2.7-0.8,5.2-2,7.5-3.6c2.3-1.5,4.3-3.4,6-5.6
				c1.7-2.2,3.1-4.6,4-7.2c0.4-1,0.7-2,1-3.2c0.2-1,0.1-1.8-0.4-2.5C70,207.6,69.3,207.1,68.3,206.9z M89.5,219.7l-12.8-22.3
				c-0.4-1-1.1-1.7-2-2.3c-0.9-0.6-1.9-0.8-3-0.8H57.3l-1.7-8.2h11.2c0.7,0.1,1.3-0.1,1.9-0.3c0.6-0.3,1.1-0.7,1.4-1.3
				c0.4-0.8,0.5-1.6,0.3-2.5c-0.3-0.9-0.8-1.6-1.6-2c-0.4-0.3-1-0.4-1.5-0.4H54.2l-0.8-3.9c0-0.1,0-0.2,0-0.2s0-0.1,0-0.2l-0.1-0.3
				c-0.4-1.3-1.1-2.4-2.2-3.2s-2.4-1.3-3.8-1.3c-1.8,0-3.3,0.6-4.5,1.8s-1.8,2.6-1.8,4.3c0,0.3,0,0.5,0.1,0.7h-0.1l4.6,22.2
				c0.2,1.3,0.8,2.3,1.8,3.1c1,0.8,2.2,1.2,3.5,1.2c0.4,0,0.7,0,0.9-0.1h19.1l11.1,19.3c0.3,0.7,0.8,1.3,1.5,1.8
				c0.7,0.4,1.5,0.7,2.4,0.7c1.1,0,2.1-0.4,2.9-1.2c0.8-0.8,1.2-1.7,1.2-2.9C89.9,220.9,89.7,220.3,89.5,219.7z"/>
		</g>
	</g>
	<g>
		<g>
			<g>
				<path class="st0" d="M79.9,277.4c-1-1-2.6-1-3.6,0l-9,9c-11.1-5.1-23-3.8-34.3,3.6c-8.4,5.5-13.6,12.4-13.8,12.7
					c-0.7,0.9-0.6,2.2,0.1,3.1c4.8,5.9,9.8,10.5,15,13.7l-7.9,7.9c-1,1-1,2.6,0,3.6c0.5,0.5,1.1,0.7,1.8,0.7s1.3-0.3,1.8-0.7
					l50-49.9C80.9,280,80.9,278.4,79.9,277.4z M46.9,306.8c-0.4-0.8-0.5-1.7-0.5-2.7c0-1.8,0.7-3.5,2-4.8c2-2,5-2.5,7.5-1.4
					L46.9,306.8z M59.6,294.2c-4.6-2.9-10.8-2.4-14.8,1.6c-2.2,2.2-3.5,5.2-3.5,8.4c0,2.3,0.7,4.5,1.9,6.4l-5.2,5.2
					c-4.6-2.6-9.1-6.5-13.4-11.6c1.9-2.2,5.8-6.4,11.2-9.9c9.3-6.1,18.7-7.4,27.7-3.9L59.6,294.2z"/>
			</g>
		</g>
		<g>
			<g>
				<path class="st0" d="M87,302.6c-3.5-4.3-7.1-7.9-10.7-10.7c-1.1-0.9-2.7-0.7-3.6,0.4c-0.9,1.1-0.7,2.7,0.4,3.6
					c2.9,2.3,5.8,5.1,8.6,8.4c-1.7,1.9-4.9,5.4-9.3,8.6c-8.4,6.1-17,8.4-25.3,6.6c-1.4-0.3-2.7,0.6-3,2c-0.3,1.4,0.6,2.7,2,3
					c2.2,0.5,4.4,0.7,6.6,0.7c3.3,0,6.7-0.5,10-1.6c4.4-1.4,8.7-3.6,12.9-6.7c7.1-5.2,11.3-10.9,11.5-11.1
					C87.7,304.7,87.7,303.5,87,302.6z"/>
			</g>
		</g>
	</g>
	<g>
		<path class="st0" d="M51.4,386c5.2,0,9.4-4.2,9.4-9.4c0-5.2-4.2-9.4-9.4-9.4c-5.2,0-9.4,4.2-9.4,9.4C41.9,381.8,46.2,386,51.4,386
			z"/>
		<path class="st0" d="M73.4,417.2c0-4.7-4.9-12.4-10.3-13.4c-0.1-0.1-0.2-0.1-0.3-0.2v0V401c0-3.7-1.8-7.3-4.8-9.4
			c-0.3-0.2-0.6-0.4-1-0.6l-5.6-2.5c0,0,0,0,0,0c-1.6-0.7-3.5-0.2-4.5,1.3l-12.7,18.6c-0.5,0.7-0.7,1.5-0.7,2.4
			c0.1,1.5,1,2.7,2.4,3.2l19,7.1c0.4,0.2,0.8,0.2,1.3,0.2c1.5,0,2.9-0.9,3.4-2.4c0.7-1.9-0.3-4-2.2-4.7l-14.6-5.4l5-7.4l-2.4,6.6
			l12.6,4.7c2.8,1,4.2,4.1,3.1,6.9c-0.8,2.1-2.8,3.5-5,3.5c-0.6,0-1.3-0.1-1.9-0.3l-15.4-5.7l-5.8,18c-1.1,3.6,1.5,7.2,5.3,7.2h8.2
			v18.2c0,2.7,2.2,4.9,5,4.8c2.6-0.1,4.6-2.3,4.6-4.9v-18h8.2c3.7,0,6.4-3.6,5.3-7.2l-2-6.4C71,426.4,73.4,422.3,73.4,417.2z"/>
	</g>
	<g>
		<g>
			<path class="st0" d="M89.6,490c0.9,0.9,1.3,1.9,1.3,3.1c0,1.2-0.4,2.2-1.3,3.1L78.9,507c-0.9,0.9-1.9,1.3-3,1.3
				c-1.2,0-2.2-0.4-3.1-1.3c-0.9-0.9-1.3-1.9-1.3-3.1c0-1.3,0.4-2.3,1.3-3.1L83.5,490c0.8-0.8,1.8-1.2,3.1-1.2
				C87.8,488.8,88.8,489.2,89.6,490z M36.2,537.7c0.8-0.8,1.8-1.2,3.1-1.2c1.2,0,2.3,0.4,3.1,1.2c0.9,0.9,1.3,1.9,1.3,3.1
				c0,1.3-0.4,2.4-1.3,3.1l-19.5,19.7c-0.9,0.9-1.9,1.3-3,1.3c-1.2,0-2.2-0.4-3.1-1.3c-0.9-0.9-1.3-1.9-1.3-3.1
				c0-1.3,0.4-2.3,1.3-3.1L36.2,537.7L36.2,537.7z M55,523.3c0-1.5-0.5-2.8-1.6-3.9c-1.1-1.1-2.4-1.6-3.9-1.6
				c-1.5,0-2.8,0.5-3.9,1.6c-1.1,1.1-1.6,2.4-1.6,3.9c0,1-0.3,1.8-0.9,2.4c-0.6,0.6-1.4,0.9-2.3,0.9c-0.9,0-1.7-0.3-2.3-0.9
				c-0.6-0.6-0.9-1.4-0.9-2.4c0-1.7,0.3-3.3,0.9-4.7c0.6-1.5,1.5-2.8,2.6-3.9c1.1-1.1,2.4-2,3.8-2.6c1.5-0.6,3-0.9,4.7-0.9
				c1.7,0,3.2,0.3,4.7,0.9c1.5,0.6,2.7,1.5,3.8,2.6c1.1,1.1,2,2.4,2.6,3.9s0.9,3.1,0.9,4.7c0,1-0.3,1.8-0.9,2.4
				c-0.6,0.6-1.4,0.9-2.3,0.9c-0.9,0-1.7-0.3-2.3-0.9C55.3,525.1,55,524.3,55,523.3z M49.5,498.4c3.3,0,6.5,0.6,9.4,1.9
				c2.9,1.3,5.5,3,7.7,5.2c2.2,2.2,3.9,4.8,5.2,7.8c1.3,3,1.9,6.1,1.9,9.5c0,2.9-0.5,5.7-1.5,8.5c-0.1,0.3-0.2,0.5-0.3,0.6
				c-0.6,1.2-1.3,2.3-1.9,3.4c-0.6,0.9-1.2,1.9-1.9,2.9c-0.7,1-1.3,1.9-1.9,2.5c-0.1,0.2-0.3,0.3-0.4,0.5c-0.2,0.2-0.3,0.4-0.5,0.6
				c-0.8,0.9-1.4,1.7-1.8,2.4c-0.4,0.7-0.5,1.7-0.5,3.2c0.1,3.1,0.1,5.4,0.1,6.9c-0.1,1.5-0.2,2.6-0.3,3.5c-0.5,3-1.8,5.3-3.9,6.9
				c-2.1,1.6-5,2.4-8.8,2.4h-0.2c-1,0-1.9-0.4-2.7-1.1c-0.7-0.7-1.2-1.7-1.2-2.8c-0.1-0.5,0-1,0.2-1.5c0.2-0.5,0.5-0.9,0.8-1.3
				c0.7-0.9,1.7-1.3,2.8-1.3c1.2-0.1,2.1-0.2,2.8-0.3c0.7-0.2,1.2-0.4,1.5-0.6c0.3-0.2,0.6-0.5,0.6-0.7c0.1-0.3,0.2-0.5,0.2-0.8
				l0.1-0.4c0.1-0.6,0.2-1.8,0.2-3.4c0-1.6,0-3.4-0.1-5.3c-0.1-1.5,0-2.8,0.3-3.9c0.3-1.1,0.6-2.1,1-3c0.4-0.9,0.9-1.6,1.4-2.3
				c0.5-0.7,1-1.3,1.6-1.9c0.2-0.2,0.4-0.5,0.8-0.9c0.3-0.4,0.7-0.9,1.2-1.6c0.4-0.7,0.9-1.4,1.3-2.1c0.5-0.7,0.9-1.4,1.3-2.1
				c0.4-0.7,0.7-1.2,1-1.7c0.3-0.8,0.5-1.7,0.6-2.5c0.1-0.9,0.2-1.8,0.2-2.8c0-2.2-0.4-4.4-1.3-6.4c-0.9-2-2-3.8-3.5-5.2
				s-3.2-2.6-5.2-3.5c-2-0.9-4.1-1.3-6.3-1.3c-2.2,0-4.4,0.4-6.3,1.3s-3.7,2-5.2,3.5c-1.5,1.5-2.6,3.2-3.5,5.2
				c-0.9,2-1.3,4.1-1.3,6.4c0,1.1-0.4,2-1.1,2.8c-0.7,0.8-1.7,1.2-2.8,1.2c-1.1,0-2-0.4-2.8-1.2s-1.2-1.7-1.2-2.8
				c0-3.3,0.6-6.5,1.9-9.5c1.3-3,3-5.6,5.2-7.8c2.2-2.2,4.7-4,7.7-5.2C43,499,46.1,498.4,49.5,498.4z"/>
		</g>
	</g>
</g>
<g id="Camada_2">
	<g>
		<g>
			<ellipse class="st2" cx="139.8" cy="80.4" rx="31.9" ry="31.9"/>
			<polygon class="st3" points="139.8,62.2 144.1,75.5 158,75.5 146.7,83.7 151,96.9 139.8,88.7 128.5,96.9 132.8,83.7 121.6,75.5 
				135.5,75.5 			"/>
		</g>
		<g>
			<ellipse class="st2" cx="212.8" cy="80.4" rx="31.9" ry="31.9"/>
			<polygon class="st3" points="212.8,62.2 217.1,75.5 231,75.5 219.7,83.7 224,96.9 212.8,88.7 201.5,96.9 205.8,83.7 194.6,75.5 
				208.5,75.5 			"/>
		</g>
		<g>
			<ellipse class="st2" cx="285.8" cy="80.4" rx="31.9" ry="31.9"/>
			<polygon class="st3" points="285.8,62.2 290.1,75.5 304,75.5 292.7,83.7 297,96.9 285.8,88.7 274.5,96.9 278.8,83.7 267.6,75.5 
				281.5,75.5 			"/>
		</g>
		<g>
			<ellipse class="st4" cx="358.8" cy="80.4" rx="31.9" ry="31.9"/>
			<polygon class="st3" points="358.8,62.2 363.1,75.5 377,75.5 365.7,83.7 370,96.9 358.8,88.7 347.5,96.9 351.8,83.7 340.6,75.5 
				354.5,75.5 			"/>
		</g>
		<g>
			<ellipse class="st4" cx="431.8" cy="80.4" rx="31.9" ry="31.9"/>
			<polygon class="st3" points="431.8,62.2 436.1,75.5 450,75.5 438.7,83.7 443,96.9 431.8,88.7 420.5,96.9 424.8,83.7 413.6,75.5 
				427.5,75.5 			"/>
		</g>
	</g>
	<g>
		<g>
			<ellipse class="st2" cx="139.8" cy="192.3" rx="31.9" ry="31.9"/>
			<polygon class="st3" points="139.8,174.1 144.1,187.4 158,187.4 146.7,195.5 151,208.8 139.8,200.6 128.5,208.8 132.8,195.5 
				121.6,187.4 135.5,187.4 			"/>
		</g>
		<g>
			<ellipse class="st4" cx="212.8" cy="192.3" rx="31.9" ry="31.9"/>
			<polygon class="st3" points="212.8,174.1 217.1,187.4 231,187.4 219.7,195.5 224,208.8 212.8,200.6 201.5,208.8 205.8,195.5 
				194.6,187.4 208.5,187.4 			"/>
		</g>
		<g>
			<ellipse class="st4" cx="285.8" cy="192.3" rx="31.9" ry="31.9"/>
			<polygon class="st3" points="285.8,174.1 290.1,187.4 304,187.4 292.7,195.5 297,208.8 285.8,200.6 274.5,208.8 278.8,195.5 
				267.6,187.4 281.5,187.4 			"/>
		</g>
		<g>
			<ellipse class="st4" cx="358.8" cy="192.3" rx="31.9" ry="31.9"/>
			<polygon class="st3" points="358.8,174.1 363.1,187.4 377,187.4 365.7,195.5 370,208.8 358.8,200.6 347.5,208.8 351.8,195.5 
				340.6,187.4 354.5,187.4 			"/>
		</g>
		<g>
			<ellipse class="st4" cx="431.8" cy="192.3" rx="31.9" ry="31.9"/>
			<polygon class="st3" points="431.8,174.1 436.1,187.4 450,187.4 438.7,195.5 443,208.8 431.8,200.6 420.5,208.8 424.8,195.5 
				413.6,187.4 427.5,187.4 			"/>
		</g>
	</g>
	<g>
		<g>
			<ellipse class="st2" cx="139.8" cy="304.2" rx="31.9" ry="31.9"/>
			<polygon class="st3" points="139.8,286 144.1,299.2 158,299.2 146.7,307.4 151,320.7 139.8,312.5 128.5,320.7 132.8,307.4 
				121.6,299.2 135.5,299.2 			"/>
		</g>
		<g>
			<ellipse class="st4" cx="212.8" cy="304.2" rx="31.9" ry="31.9"/>
			<polygon class="st3" points="212.8,286 217.1,299.2 231,299.2 219.7,307.4 224,320.7 212.8,312.5 201.5,320.7 205.8,307.4 
				194.6,299.2 208.5,299.2 			"/>
		</g>
		<g>
			<ellipse class="st4" cx="285.8" cy="304.2" rx="31.9" ry="31.9"/>
			<polygon class="st3" points="285.8,286 290.1,299.2 304,299.2 292.7,307.4 297,320.7 285.8,312.5 274.5,320.7 278.8,307.4 
				267.6,299.2 281.5,299.2 			"/>
		</g>
		<g>
			<ellipse class="st4" cx="358.8" cy="304.2" rx="31.9" ry="31.9"/>
			<polygon class="st3" points="358.8,286 363.1,299.2 377,299.2 365.7,307.4 370,320.7 358.8,312.5 347.5,320.7 351.8,307.4 
				340.6,299.2 354.5,299.2 			"/>
		</g>
		<g>
			<ellipse class="st4" cx="431.8" cy="304.2" rx="31.9" ry="31.9"/>
			<polygon class="st3" points="431.8,286 436.1,299.2 450,299.2 438.7,307.4 443,320.7 431.8,312.5 420.5,320.7 424.8,307.4 
				413.6,299.2 427.5,299.2 			"/>
		</g>
	</g>
	<g>
		<g>
			<ellipse class="st2" cx="139.8" cy="416.1" rx="31.9" ry="31.9"/>
			<polygon class="st3" points="139.8,397.9 144.1,411.1 158,411.1 146.7,419.3 151,432.5 139.8,424.4 128.5,432.5 132.8,419.3 
				121.6,411.1 135.5,411.1 			"/>
		</g>
		<g>
			<ellipse class="st2" cx="212.8" cy="416.1" rx="31.9" ry="31.9"/>
			<polygon class="st3" points="212.8,397.9 217.1,411.1 231,411.1 219.7,419.3 224,432.5 212.8,424.4 201.5,432.5 205.8,419.3 
				194.6,411.1 208.5,411.1 			"/>
		</g>
		<g>
			<ellipse class="st4" cx="285.8" cy="416.1" rx="31.9" ry="31.9"/>
			<polygon class="st3" points="285.8,397.9 290.1,411.1 304,411.1 292.7,419.3 297,432.5 285.8,424.4 274.5,432.5 278.8,419.3 
				267.6,411.1 281.5,411.1 			"/>
		</g>
		<g>
			<ellipse class="st4" cx="358.8" cy="416.1" rx="31.9" ry="31.9"/>
			<polygon class="st3" points="358.8,397.9 363.1,411.1 377,411.1 365.7,419.3 370,432.5 358.8,424.4 347.5,432.5 351.8,419.3 
				340.6,411.1 354.5,411.1 			"/>
		</g>
		<g>
			<ellipse class="st4" cx="431.8" cy="416.1" rx="31.9" ry="31.9"/>
			<polygon class="st3" points="431.8,397.9 436.1,411.1 450,411.1 438.7,419.3 443,432.5 431.8,424.4 420.5,432.5 424.8,419.3 
				413.6,411.1 427.5,411.1 			"/>
		</g>
	</g>
	<g>
		<g>
			<ellipse class="st2" cx="139.8" cy="528" rx="31.9" ry="31.9"/>
			<polygon class="st3" points="139.8,509.8 144.1,523 158,523 146.7,531.2 151,544.4 139.8,536.2 128.5,544.4 132.8,531.2 
				121.6,523 135.5,523 			"/>
		</g>
		<g>
			<ellipse class="st2" cx="212.8" cy="528" rx="31.9" ry="31.9"/>
			<polygon class="st3" points="212.8,509.8 217.1,523 231,523 219.7,531.2 224,544.4 212.8,536.2 201.5,544.4 205.8,531.2 
				194.6,523 208.5,523 			"/>
		</g>
		<g>
			<ellipse class="st2" cx="285.8" cy="528" rx="31.9" ry="31.9"/>
			<polygon class="st3" points="285.8,509.8 290.1,523 304,523 292.7,531.2 297,544.4 285.8,536.2 274.5,544.4 278.8,531.2 
				267.6,523 281.5,523 			"/>
		</g>
		<g>
			<ellipse class="st2" cx="358.8" cy="528" rx="31.9" ry="31.9"/>
			<polygon class="st3" points="358.8,509.8 363.1,523 377,523 365.7,531.2 370,544.4 358.8,536.2 347.5,544.4 351.8,531.2 
				340.6,523 354.5,523 			"/>
		</g>
		<g>
			<ellipse class="st2" cx="431.8" cy="528" rx="31.9" ry="31.9"/>
			<polygon class="st3" points="431.8,509.8 436.1,523 450,523 438.7,531.2 443,544.4 431.8,536.2 420.5,544.4 424.8,531.2 
				413.6,523 427.5,523 			"/>
		</g>
	</g>
</g>
</svg>
