<?xml version="1.0" encoding="utf-8"?>
<!-- Generator: Adobe Illustrator 21.0.0, SVG Export Plug-In . SVG Version: 6.00 Build 0)  -->
<svg version="1.1" id="Camada_1" xmlns="http://www.w3.org/2000/svg" xmlns:xlink="http://www.w3.org/1999/xlink" x="0px" y="0px"
	 viewBox="0 0 100 100" style="enable-background:new 0 0 100 100;" xml:space="preserve">
<style type="text/css">
	.st0{fill:#333333;}
	.st1{fill:#333333;stroke:#000000;stroke-miterlimit:10;}
</style>
<title>Ativo 5</title>
<g id="Camada_2">
	<g id="Camada_1-2">
		<path class="st0" d="M66.6,52.5l-9.6-23c-0.7-1.5-2-2.7-3.5-3.4L50,24.7l0,0l-2.9-1.1c-0.4-0.1-0.7-0.2-1.1-0.2
			c-1.3,0-2.5,0.9-3,2.1l-11.8,31c-0.3,0.9-0.3,1.9,0.2,2.7c0,0.1,0.1,0.3,0.1,0.4l6.6,13.6c0.6,1.4,0.6,2.9,0.2,4.3l-6.6,17.3
			c-0.4,0.9-0.3,2,0.2,2.8c0.6,0.8,1.6,1.3,2.6,1.2H38c2.1-0.1,4-1.4,4.8-3.3l6.6-17.3c0.6-2,0.6-4.1-0.1-6l-5.1-11.9l8.1-21.6
			l5.2,12.4c-2,1.1-3.2,3.2-3.2,5.4c0,0.6,0.5,1.1,1.1,1.1c0.6,0,1.1-0.5,1.1-1.1c0-1.4,0.7-2.7,1.9-3.4l0.2,0.6
			c0.7,1.5,2.2,2.4,3.8,2.5h0.3l1.6-0.1h0.2c0,0.2,0,0.3,0.1,0.5v41.8c0,0.6,0.5,1.1,1.1,1.1c0.6,0,1.1-0.5,1.1-1.1V56.6
			c0-0.6-0.1-1.2-0.3-1.8C66.9,54.1,67,53.2,66.6,52.5z"/>
		<path class="st0" d="M54.1,21.8c5.7,2.1,12-0.8,14.1-6.5c2.1-5.7-0.8-12-6.5-14.1c-2.2-0.8-4.6-0.9-6.9-0.3
			c-2.5,0.7-4.7,2.3-6.1,4.6c-3.3,5.1-1.9,11.9,3.2,15.2C52.6,21.2,53.4,21.5,54.1,21.8z"/>
		<path class="st1" d="M85,87"/>
		<path class="st1" d="M86.2,33.2"/>
	</g>
</g>
</svg>
