<svg xmlns="http://www.w3.org/2000/svg" viewBox="0 0 37.93 99"><defs><style>.cls-1,.cls-2{fill:#333;}.cls-2{stroke:#000;stroke-miterlimit:10;}</style></defs><title>Ativo 5</title><g id="Camada_2" data-name="Camada 2"><g id="Camada_1-2" data-name="Camada 1"><path class="cls-1" d="M35.6,51.95,26,28.92a7,7,0,0,0-3.47-3.35L19,24.24h0l-2.9-1.09A3.23,3.23,0,0,0,15,22.94a3.27,3.27,0,0,0-3,2.1L.21,56a3.23,3.23,0,0,0,.22,2.73,3.58,3.58,0,0,0,.14.39L7.16,72.71A6.22,6.22,0,0,1,7.34,77L.69,94.3a3,3,0,0,0,.23,2.85,3,3,0,0,0,2.58,1.24H6.92a5.59,5.59,0,0,0,4.83-3.32l6.64-17.29a9.27,9.27,0,0,0-.11-6L13.2,59.85l8.08-21.57,5.25,12.38a6.22,6.22,0,0,0-3.2,5.43,1.08,1.08,0,0,0,2.16,0,4,4,0,0,1,1.89-3.42l.25.58a4.34,4.34,0,0,0,3.81,2.49h.27l1.64-.13.19,0a3.94,3.94,0,0,1,.05.52V97.92a1.08,1.08,0,0,0,2.16,0V56.09a6.18,6.18,0,0,0-.26-1.78A2.68,2.68,0,0,0,35.6,51.95Z"/><path class="cls-1" d="M23.08,21.3A11,11,0,1,0,23.84.43,10.75,10.75,0,0,0,17.7,5,11,11,0,0,0,23.08,21.3Z"/><path class="cls-2" d="M54,86.5"/><path class="cls-2" d="M55.12,32.72"/></g></g></svg>