<svg xmlns="http://www.w3.org/2000/svg" width="1920" height="1080"><path d="M479,-225L770,-204L1181,-197Z" fill="#b4dec5" stroke="#b4dec5" stroke-width="1.51"/><path d="M770,-204L852,-193L1181,-197Z" fill="#acdac6" stroke="#acdac6" stroke-width="1.51"/><path d="M1206,1258L1071,1277L1446,1267Z" fill="#245c99" stroke="#245c99" stroke-width="1.51"/><path d="M713,1325L464,1338L1797,1314Z" fill="#2f6693" stroke="#2f6693" stroke-width="1.51"/><path d="M1446,1267L1071,1277L1797,1314Z" fill="#1e4b8f" stroke="#1e4b8f" stroke-width="1.51"/><path d="M1071,1277L713,1325L1797,1314Z" fill="#255c94" stroke="#255c94" stroke-width="1.51"/><path d="M1456,-185L1643,-187L1815,-210Z" fill="#9ca3b7" stroke="#9ca3b7" stroke-width="1.51"/><path d="M479,-225L1181,-197L1920,-230Z" fill="#a3cac8" stroke="#a3cac8" stroke-width="1.51"/><path d="M169,-242L479,-225L1920,-230Z" fill="#b3ddc8" stroke="#b3ddc8" stroke-width="1.51"/><path d="M1456,-185L1815,-210L1920,-230Z" fill="#9c9bb6" stroke="#9c9bb6" stroke-width="1.51"/><path d="M1181,-197L1456,-185L1920,-230Z" fill="#9dadbc" stroke="#9dadbc" stroke-width="1.51"/><path d="M2047,669L1981,711L2051,866Z" fill="#225a98" stroke="#225a98" stroke-width="1.51"/><path d="M1797,1314L464,1338L2082,1323Z" fill="#1c4889" stroke="#1c4889" stroke-width="1.51"/><path d="M1937,284L2044,410L2092,191Z" fill="#5b7897" stroke="#5b7897" stroke-width="1.51"/><path d="M2044,410L2056,559L2092,191Z" fill="#4b7194" stroke="#4b7194" stroke-width="1.51"/><path d="M2059,60L2092,191L2107,-48Z" fill="#7a818e" stroke="#7a818e" stroke-width="1.51"/><path d="M1953,1121L2082,1323L2108,1149Z" fill="#1a2a7b" stroke="#1a2a7b" stroke-width="1.51"/><path d="M2051,866L1965,884L2134,1023Z" fill="#1d448b" stroke="#1d448b" stroke-width="1.51"/><path d="M1965,884L1917,954L2134,1023Z" fill="#1e438f" stroke="#1e438f" stroke-width="1.51"/><path d="M1917,954L1953,1121L2134,1023Z" fill="#1f3b8b" stroke="#1f3b8b" stroke-width="1.51"/><path d="M2056,559L2047,669L2134,1023Z" fill="#1f5893" stroke="#1f5893" stroke-width="1.51"/><path d="M2047,669L2051,866L2134,1023Z" fill="#1d4b8d" stroke="#1d4b8d" stroke-width="1.51"/><path d="M1953,1121L2108,1149L2134,1023Z" fill="#1c3282" stroke="#1c3282" stroke-width="1.51"/><path d="M2092,191L2056,559L2134,1023Z" fill="#2d6493" stroke="#2d6493" stroke-width="1.51"/><path d="M2107,-48L2092,191L2134,1023Z" fill="#486f8f" stroke="#486f8f" stroke-width="1.51"/><path d="M2108,1149L2082,1323L2134,1023Z" fill="#192a7a" stroke="#192a7a" stroke-width="1.51"/><path d="M1953,1121L1886,1242L2082,1323Z" fill="#1b2b7e" stroke="#1b2b7e" stroke-width="1.51"/><path d="M2059,60L1953,126L2092,191Z" fill="#788194" stroke="#788194" stroke-width="1.51"/><path d="M1912,-70L2059,60L2107,-48Z" fill="#868694" stroke="#868694" stroke-width="1.51"/><path d="M2049,-216L1912,-70L2107,-48Z" fill="#8d8897" stroke="#8d8897" stroke-width="1.51"/><path d="M1886,1242L1797,1314L2082,1323Z" fill="#192a79" stroke="#192a79" stroke-width="1.51"/><path d="M1953,126L1937,284L2092,191Z" fill="#6e7f9a" stroke="#6e7f9a" stroke-width="1.51"/><path d="M1937,284L1896,339L2044,410Z" fill="#56789e" stroke="#56789e" stroke-width="1.51"/><path d="M1920,-230L1912,-70L2049,-216Z" fill="#938ca3" stroke="#938ca3" stroke-width="1.51"/><path d="M1981,711L1965,884L2051,866Z" fill="#235397" stroke="#235397" stroke-width="1.51"/><path d="M1947,590L2047,669L2056,559Z" fill="#30679b" stroke="#30679b" stroke-width="1.51"/><path d="M2044,410L1947,590L2056,559Z" fill="#396d9b" stroke="#396d9b" stroke-width="1.51"/><path d="M1912,-70L1953,126L2059,60Z" fill="#84869a" stroke="#84869a" stroke-width="1.51"/><path d="M1896,339L1947,590L2044,410Z" fill="#4873a0" stroke="#4873a0" stroke-width="1.51"/><path d="M1947,590L1981,711L2047,669Z" fill="#2d649d" stroke="#2d649d" stroke-width="1.51"/><path d="M283,1311L-32,1305L464,1338Z" fill="#7c818e" stroke="#7c818e" stroke-width="1.51"/><path d="M1896,339L1803,355L1947,590Z" fill="#4f78a8" stroke="#4f78a8" stroke-width="1.51"/><path d="M1803,355L1735,571L1947,590Z" fill="#4478ad" stroke="#4478ad" stroke-width="1.51"/><path d="M1917,954L1799,1040L1953,1121Z" fill="#254097" stroke="#254097" stroke-width="1.51"/><path d="M1912,-70L1818,-48L1953,126Z" fill="#8d8ca3" stroke="#8d8ca3" stroke-width="1.51"/><path d="M1947,590L1750,675L1981,711Z" fill="#3368a8" stroke="#3368a8" stroke-width="1.51"/><path d="M1750,675L1759,814L1981,711Z" fill="#2d65ab" stroke="#2d65ab" stroke-width="1.51"/><path d="M1759,814L1965,884L1981,711Z" fill="#285aa2" stroke="#285aa2" stroke-width="1.51"/><path d="M1815,-210L1912,-70L1920,-230Z" fill="#9890ac" stroke="#9890ac" stroke-width="1.51"/><path d="M1818,-48L1766,123L1953,126Z" fill="#898ca7" stroke="#898ca7" stroke-width="1.51"/><path d="M1774,233L1937,284L1953,126Z" fill="#7383a4" stroke="#7383a4" stroke-width="1.51"/><path d="M1759,814L1917,954L1965,884Z" fill="#2751a0" stroke="#2751a0" stroke-width="1.51"/><path d="M1791,1108L1886,1242L1953,1121Z" fill="#243392" stroke="#243392" stroke-width="1.51"/><path d="M1799,1040L1791,1108L1953,1121Z" fill="#263c98" stroke="#263c98" stroke-width="1.51"/><path d="M1766,123L1774,233L1953,126Z" fill="#7e8aa8" stroke="#7e8aa8" stroke-width="1.51"/><path d="M1735,571L1750,675L1947,590Z" fill="#3871ad" stroke="#3871ad" stroke-width="1.51"/><path d="M1774,233L1896,339L1937,284Z" fill="#6780a7" stroke="#6780a7" stroke-width="1.51"/><path d="M1815,-210L1818,-48L1912,-70Z" fill="#9891a9" stroke="#9891a9" stroke-width="1.51"/><path d="M1759,814L1799,1040L1917,954Z" fill="#274ea0" stroke="#274ea0" stroke-width="1.51"/><path d="M1774,233L1803,355L1896,339Z" fill="#6382a9" stroke="#6382a9" stroke-width="1.51"/><path d="M1660,1239L1446,1267L1797,1314Z" fill="#1e3d8a" stroke="#1e3d8a" stroke-width="1.51"/><path d="M1791,1108L1797,1314L1886,1242Z" fill="#21338b" stroke="#21338b" stroke-width="1.51"/><path d="M1181,-197L1320,-172L1456,-185Z" fill="#9fbfc2" stroke="#9fbfc2" stroke-width="1.51"/><path d="M1662,851L1658,960L1759,814Z" fill="#265ea8" stroke="#265ea8" stroke-width="1.51"/><path d="M1791,1108L1660,1239L1797,1314Z" fill="#21388e" stroke="#21388e" stroke-width="1.51"/><path d="M1759,814L1658,960L1799,1040Z" fill="#2654a3" stroke="#2654a3" stroke-width="1.51"/><path d="M1623,380L1735,571L1803,355Z" fill="#4e83af" stroke="#4e83af" stroke-width="1.51"/><path d="M1630,74L1766,123L1818,-48Z" fill="#8c95aa" stroke="#8c95aa" stroke-width="1.51"/><path d="M1615,-63L1630,74L1818,-48Z" fill="#929bab" stroke="#929bab" stroke-width="1.51"/><path d="M1815,-210L1643,-187L1818,-48Z" fill="#9a98b0" stroke="#9a98b0" stroke-width="1.51"/><path d="M1643,-187L1615,-63L1818,-48Z" fill="#999dad" stroke="#999dad" stroke-width="1.51"/><path d="M1774,233L1661,243L1803,355Z" fill="#6989ac" stroke="#6989ac" stroke-width="1.51"/><path d="M1628,1144L1660,1239L1791,1108Z" fill="#264099" stroke="#264099" stroke-width="1.51"/><path d="M1661,243L1623,380L1803,355Z" fill="#5e8aae" stroke="#5e8aae" stroke-width="1.51"/><path d="M1628,1144L1791,1108L1799,1040Z" fill="#26439b" stroke="#26439b" stroke-width="1.51"/><path d="M1658,960L1628,1144L1799,1040Z" fill="#264b9f" stroke="#264b9f" stroke-width="1.51"/><path d="M1766,123L1661,243L1774,233Z" fill="#778fab" stroke="#778fab" stroke-width="1.51"/><path d="M1623,380L1598,572L1735,571Z" fill="#4184b3" stroke="#4184b3" stroke-width="1.51"/><path d="M1735,571L1675,647L1750,675Z" fill="#3476b0" stroke="#3476b0" stroke-width="1.51"/><path d="M1750,675L1675,647L1759,814Z" fill="#2d6eaf" stroke="#2d6eaf" stroke-width="1.51"/><path d="M1675,647L1662,851L1759,814Z" fill="#286bae" stroke="#286bae" stroke-width="1.51"/><path d="M1630,74L1661,243L1766,123Z" fill="#8196ad" stroke="#8196ad" stroke-width="1.51"/><path d="M1598,572L1675,647L1735,571Z" fill="#367db2" stroke="#367db2" stroke-width="1.51"/><path d="M1528,504L1598,572L1623,380Z" fill="#438ab4" stroke="#438ab4" stroke-width="1.51"/><path d="M1527,410L1528,504L1623,380Z" fill="#4c8fb4" stroke="#4c8fb4" stroke-width="1.51"/><path d="M1527,958L1628,1144L1658,960Z" fill="#2554a3" stroke="#2554a3" stroke-width="1.51"/><path d="M1630,74L1531,243L1661,243Z" fill="#7999af" stroke="#7999af" stroke-width="1.51"/><path d="M1531,243L1623,380L1661,243Z" fill="#6593b1" stroke="#6593b1" stroke-width="1.51"/><path d="M1527,958L1658,960L1662,851Z" fill="#245da8" stroke="#245da8" stroke-width="1.51"/><path d="M1510,703L1662,851L1675,647Z" fill="#2774b2" stroke="#2774b2" stroke-width="1.51"/><path d="M1598,572L1510,703L1675,647Z" fill="#307eb4" stroke="#307eb4" stroke-width="1.51"/><path d="M1491,91L1531,243L1630,74Z" fill="#82a1b1" stroke="#82a1b1" stroke-width="1.51"/><path d="M1436,807L1527,958L1662,851Z" fill="#2369ad" stroke="#2369ad" stroke-width="1.51"/><path d="M1510,703L1436,807L1662,851Z" fill="#2474b3" stroke="#2474b3" stroke-width="1.51"/><path d="M1628,1144L1446,1267L1660,1239Z" fill="#224495" stroke="#224495" stroke-width="1.51"/><path d="M1527,958L1445,1110L1628,1144Z" fill="#2654a4" stroke="#2654a4" stroke-width="1.51"/><path d="M1615,-63L1491,91L1630,74Z" fill="#8da2af" stroke="#8da2af" stroke-width="1.51"/><path d="M1471,-102L1615,-63L1643,-187Z" fill="#99a6b2" stroke="#99a6b2" stroke-width="1.51"/><path d="M1456,-185L1471,-102L1643,-187Z" fill="#9bacb8" stroke="#9bacb8" stroke-width="1.51"/><path d="M1531,243L1527,410L1623,380Z" fill="#5993b2" stroke="#5993b2" stroke-width="1.51"/><path d="M1445,1110L1446,1267L1628,1144Z" fill="#264d9d" stroke="#264d9d" stroke-width="1.51"/><path d="M1471,-102L1491,91L1615,-63Z" fill="#94a8b1" stroke="#94a8b1" stroke-width="1.51"/><path d="M1355,1240L1206,1258L1446,1267Z" fill="#235598" stroke="#235598" stroke-width="1.51"/><path d="M1528,504L1510,703L1598,572Z" fill="#3385b6" stroke="#3385b6" stroke-width="1.51"/><path d="M1471,-102L1374,48L1491,91Z" fill="#91aeb4" stroke="#91aeb4" stroke-width="1.51"/><path d="M1289,951L1445,1110L1527,958Z" fill="#2664ab" stroke="#2664ab" stroke-width="1.51"/><path d="M1436,807L1289,951L1527,958Z" fill="#236fb1" stroke="#236fb1" stroke-width="1.51"/><path d="M1371,268L1306,403L1527,410Z" fill="#57a0b9" stroke="#57a0b9" stroke-width="1.51"/><path d="M1321,672L1510,703L1528,504Z" fill="#2f8bba" stroke="#2f8bba" stroke-width="1.51"/><path d="M1291,503L1321,672L1528,504Z" fill="#3497bd" stroke="#3497bd" stroke-width="1.51"/><path d="M1527,410L1306,403L1528,504Z" fill="#4b98b9" stroke="#4b98b9" stroke-width="1.51"/><path d="M1306,403L1291,503L1528,504Z" fill="#449dbc" stroke="#449dbc" stroke-width="1.51"/><path d="M1371,268L1527,410L1531,243Z" fill="#619db5" stroke="#619db5" stroke-width="1.51"/><path d="M1491,91L1371,268L1531,243Z" fill="#77a4b5" stroke="#77a4b5" stroke-width="1.51"/><path d="M1374,48L1371,268L1491,91Z" fill="#84adb6" stroke="#84adb6" stroke-width="1.51"/><path d="M1321,672L1436,807L1510,703Z" fill="#2484ba" stroke="#2484ba" stroke-width="1.51"/><path d="M1321,672L1359,796L1436,807Z" fill="#2086bb" stroke="#2086bb" stroke-width="1.51"/><path d="M1445,1110L1355,1240L1446,1267Z" fill="#25529d" stroke="#25529d" stroke-width="1.51"/><path d="M1359,796L1289,951L1436,807Z" fill="#237bb6" stroke="#237bb6" stroke-width="1.51"/><path d="M1289,951L1301,1105L1445,1110Z" fill="#2865ac" stroke="#2865ac" stroke-width="1.51"/><path d="M1308,-82L1374,48L1471,-102Z" fill="#98b6b6" stroke="#98b6b6" stroke-width="1.51"/><path d="M1456,-185L1320,-172L1471,-102Z" fill="#9db6bb" stroke="#9db6bb" stroke-width="1.51"/><path d="M1320,-172L1308,-82L1471,-102Z" fill="#9dbabb" stroke="#9dbabb" stroke-width="1.51"/><path d="M1301,1105L1355,1240L1445,1110Z" fill="#2a5aa6" stroke="#2a5aa6" stroke-width="1.51"/><path d="M852,-193L1045,-161L1181,-197Z" fill="#a7d4c5" stroke="#a7d4c5" stroke-width="1.51"/><path d="M1213,249L1306,403L1371,268Z" fill="#61adbc" stroke="#61adbc" stroke-width="1.51"/><path d="M1308,-82L1172,123L1374,48Z" fill="#91bdba" stroke="#91bdba" stroke-width="1.51"/><path d="M1213,249L1371,268L1374,48Z" fill="#7ab3ba" stroke="#7ab3ba" stroke-width="1.51"/><path d="M1172,123L1213,249L1374,48Z" fill="#85bbbb" stroke="#85bbbb" stroke-width="1.51"/><path d="M1169,-76L1172,123L1308,-82Z" fill="#97c3bb" stroke="#97c3bb" stroke-width="1.51"/><path d="M1301,1105L1206,1258L1355,1240Z" fill="#285da2" stroke="#285da2" stroke-width="1.51"/><path d="M1321,672L1134,847L1359,796Z" fill="#1f8dbe" stroke="#1f8dbe" stroke-width="1.51"/><path d="M1134,847L1289,951L1359,796Z" fill="#2182b9" stroke="#2182b9" stroke-width="1.51"/><path d="M1162,654L1134,847L1321,672Z" fill="#2596c1" stroke="#2596c1" stroke-width="1.51"/><path d="M1145,561L1162,654L1291,503Z" fill="#33a4c2" stroke="#33a4c2" stroke-width="1.51"/><path d="M1135,1160L1206,1258L1301,1105Z" fill="#2e64a8" stroke="#2e64a8" stroke-width="1.51"/><path d="M1289,951L1151,999L1301,1105Z" fill="#2872b1" stroke="#2872b1" stroke-width="1.51"/><path d="M1225,425L1291,503L1306,403Z" fill="#48a8c0" stroke="#48a8c0" stroke-width="1.51"/><path d="M1213,249L1225,425L1306,403Z" fill="#57adbe" stroke="#57adbe" stroke-width="1.51"/><path d="M1181,-197L1169,-76L1308,-82Z" fill="#a0c6bf" stroke="#a0c6bf" stroke-width="1.51"/><path d="M1181,-197L1308,-82L1320,-172Z" fill="#9fc3c1" stroke="#9fc3c1" stroke-width="1.51"/><path d="M1291,503L1162,654L1321,672Z" fill="#2d9dc2" stroke="#2d9dc2" stroke-width="1.51"/><path d="M1151,999L1135,1160L1301,1105Z" fill="#2e6dae" stroke="#2e6dae" stroke-width="1.51"/><path d="M1134,847L1151,999L1289,951Z" fill="#287eb6" stroke="#287eb6" stroke-width="1.51"/><path d="M1225,425L1145,561L1291,503Z" fill="#3fa8c2" stroke="#3fa8c2" stroke-width="1.51"/><path d="M915,1246L713,1325L1071,1277Z" fill="#3c6d98" stroke="#3c6d98" stroke-width="1.51"/><path d="M1169,-76L1012,-36L1172,123Z" fill="#98c9bb" stroke="#98c9bb" stroke-width="1.51"/><path d="M988,440L1145,561L1225,425Z" fill="#48afc2" stroke="#48afc2" stroke-width="1.51"/><path d="M1030,283L988,440L1225,425Z" fill="#59b7c0" stroke="#59b7c0" stroke-width="1.51"/><path d="M1213,249L1030,283L1225,425Z" fill="#62b6be" stroke="#62b6be" stroke-width="1.51"/><path d="M1172,123L1030,283L1213,249Z" fill="#78bebd" stroke="#78bebd" stroke-width="1.51"/><path d="M996,703L1134,847L1162,654Z" fill="#2b9cc1" stroke="#2b9cc1" stroke-width="1.51"/><path d="M1135,1160L1071,1277L1206,1258Z" fill="#2e64a0" stroke="#2e64a0" stroke-width="1.51"/><path d="M1134,847L1054,885L1151,999Z" fill="#2e85b8" stroke="#2e85b8" stroke-width="1.51"/><path d="M1054,885L1047,963L1151,999Z" fill="#3082b5" stroke="#3082b5" stroke-width="1.51"/><path d="M988,139L1030,283L1172,123Z" fill="#83c5bd" stroke="#83c5bd" stroke-width="1.51"/><path d="M1012,-36L988,139L1172,123Z" fill="#93cbbc" stroke="#93cbbc" stroke-width="1.51"/><path d="M1045,-161L1169,-76L1181,-197Z" fill="#a3ccc1" stroke="#a3ccc1" stroke-width="1.51"/><path d="M1047,963L1024,1184L1135,1160Z" fill="#3773ae" stroke="#3773ae" stroke-width="1.51"/><path d="M988,440L994,553L1145,561Z" fill="#42b2c3" stroke="#42b2c3" stroke-width="1.51"/><path d="M1047,963L1135,1160L1151,999Z" fill="#3377b1" stroke="#3377b1" stroke-width="1.51"/><path d="M1045,-161L1012,-36L1169,-76Z" fill="#a3cfbc" stroke="#a3cfbc" stroke-width="1.51"/><path d="M1145,561L994,553L1162,654Z" fill="#38a8c3" stroke="#38a8c3" stroke-width="1.51"/><path d="M994,553L996,703L1162,654Z" fill="#37a7c3" stroke="#37a7c3" stroke-width="1.51"/><path d="M996,703L1054,885L1134,847Z" fill="#2f95be" stroke="#2f95be" stroke-width="1.51"/><path d="M1024,1184L1071,1277L1135,1160Z" fill="#3469a4" stroke="#3469a4" stroke-width="1.51"/><path d="M887,965L847,1141L1024,1184Z" fill="#427baf" stroke="#427baf" stroke-width="1.51"/><path d="M887,965L1024,1184L1047,963Z" fill="#3a7fb2" stroke="#3a7fb2" stroke-width="1.51"/><path d="M996,703L929,881L1054,885Z" fill="#3398be" stroke="#3398be" stroke-width="1.51"/><path d="M1024,1184L915,1246L1071,1277Z" fill="#366ca0" stroke="#366ca0" stroke-width="1.51"/><path d="M929,881L1047,963L1054,885Z" fill="#348bb8" stroke="#348bb8" stroke-width="1.51"/><path d="M871,-15L988,139L1012,-36Z" fill="#9ad3bc" stroke="#9ad3bc" stroke-width="1.51"/><path d="M842,358L988,440L1030,283Z" fill="#61c0c0" stroke="#61c0c0" stroke-width="1.51"/><path d="M852,-193L1012,-36L1045,-161Z" fill="#a7d7c0" stroke="#a7d7c0" stroke-width="1.51"/><path d="M929,881L887,965L1047,963Z" fill="#398bb7" stroke="#398bb7" stroke-width="1.51"/><path d="M994,553L879,697L996,703Z" fill="#3aacc3" stroke="#3aacc3" stroke-width="1.51"/><path d="M879,697L929,881L996,703Z" fill="#37a2c1" stroke="#37a2c1" stroke-width="1.51"/><path d="M852,-193L871,-15L1012,-36Z" fill="#a9d9bb" stroke="#a9d9bb" stroke-width="1.51"/><path d="M988,139L837,213L1030,283Z" fill="#80cabe" stroke="#80cabe" stroke-width="1.51"/><path d="M837,213L842,358L1030,283Z" fill="#75c7be" stroke="#75c7be" stroke-width="1.51"/><path d="M871,-15L840,94L988,139Z" fill="#9ad4bb" stroke="#9ad4bb" stroke-width="1.51"/><path d="M847,1141L915,1246L1024,1184Z" fill="#4072a7" stroke="#4072a7" stroke-width="1.51"/><path d="M988,440L861,509L994,553Z" fill="#4bb8c3" stroke="#4bb8c3" stroke-width="1.51"/><path d="M861,509L879,697L994,553Z" fill="#45b4c3" stroke="#45b4c3" stroke-width="1.51"/><path d="M840,94L837,213L988,139Z" fill="#91d0bc" stroke="#91d0bc" stroke-width="1.51"/><path d="M842,358L861,509L988,440Z" fill="#5cbec1" stroke="#5cbec1" stroke-width="1.51"/><path d="M758,860L887,965L929,881Z" fill="#4593b8" stroke="#4593b8" stroke-width="1.51"/><path d="M879,697L758,860L929,881Z" fill="#449ebd" stroke="#449ebd" stroke-width="1.51"/><path d="M847,1141L746,1158L915,1246Z" fill="#4b76a7" stroke="#4b76a7" stroke-width="1.51"/><path d="M746,1158L713,1325L915,1246Z" fill="#4a739d" stroke="#4a739d" stroke-width="1.51"/><path d="M693,988L746,1158L847,1141Z" fill="#5381ad" stroke="#5381ad" stroke-width="1.51"/><path d="M842,358L757,408L861,509Z" fill="#65c2c0" stroke="#65c2c0" stroke-width="1.51"/><path d="M705,495L691,693L861,509Z" fill="#5abbc1" stroke="#5abbc1" stroke-width="1.51"/><path d="M852,-193L770,-204L871,-15Z" fill="#b0ddbf" stroke="#b0ddbf" stroke-width="1.51"/><path d="M770,-204L696,-13L871,-15Z" fill="#b2deb9" stroke="#b2deb9" stroke-width="1.51"/><path d="M861,509L691,693L879,697Z" fill="#4fb3c1" stroke="#4fb3c1" stroke-width="1.51"/><path d="M691,693L758,860L879,697Z" fill="#4eaac0" stroke="#4eaac0" stroke-width="1.51"/><path d="M693,988L847,1141L887,965Z" fill="#4d86b1" stroke="#4d86b1" stroke-width="1.51"/><path d="M758,860L693,988L887,965Z" fill="#4f92b5" stroke="#4f92b5" stroke-width="1.51"/><path d="M837,213L745,227L842,358Z" fill="#81ccbd" stroke="#81ccbd" stroke-width="1.51"/><path d="M696,-13L840,94L871,-15Z" fill="#a6d9ba" stroke="#a6d9ba" stroke-width="1.51"/><path d="M745,227L837,213L840,94Z" fill="#92d2bb" stroke="#92d2bb" stroke-width="1.51"/><path d="M757,408L705,495L861,509Z" fill="#63c1c0" stroke="#63c1c0" stroke-width="1.51"/><path d="M691,93L745,227L840,94Z" fill="#9dd6b9" stroke="#9dd6b9" stroke-width="1.51"/><path d="M696,-13L691,93L840,94Z" fill="#a7dab9" stroke="#a7dab9" stroke-width="1.51"/><path d="M479,-225L557,-172L770,-204Z" fill="#c5e7c2" stroke="#c5e7c2" stroke-width="1.51"/><path d="M745,227L757,408L842,358Z" fill="#75c8bd" stroke="#75c8bd" stroke-width="1.51"/><path d="M623,531L691,693L705,495Z" fill="#62bebf" stroke="#62bebf" stroke-width="1.51"/><path d="M611,1292L464,1338L713,1325Z" fill="#597590" stroke="#597590" stroke-width="1.51"/><path d="M693,988L605,1097L746,1158Z" fill="#5b85ad" stroke="#5b85ad" stroke-width="1.51"/><path d="M611,1292L713,1325L746,1158Z" fill="#52769a" stroke="#52769a" stroke-width="1.51"/><path d="M745,227L602,359L757,408Z" fill="#7ccbbc" stroke="#7ccbbc" stroke-width="1.51"/><path d="M691,693L581,857L758,860Z" fill="#59a7bb" stroke="#59a7bb" stroke-width="1.51"/><path d="M565,-92L696,-13L770,-204Z" fill="#b9e2b9" stroke="#b9e2b9" stroke-width="1.51"/><path d="M557,-172L565,-92L770,-204Z" fill="#c0e5bd" stroke="#c0e5bd" stroke-width="1.51"/><path d="M582,212L602,359L745,227Z" fill="#8fd2ba" stroke="#8fd2ba" stroke-width="1.51"/><path d="M581,857L693,988L758,860Z" fill="#5999b6" stroke="#5999b6" stroke-width="1.51"/><path d="M691,93L582,212L745,227Z" fill="#9cd7b9" stroke="#9cd7b9" stroke-width="1.51"/><path d="M602,359L705,495L757,408Z" fill="#72c7be" stroke="#72c7be" stroke-width="1.51"/><path d="M605,1097L611,1292L746,1158Z" fill="#5d7ca5" stroke="#5d7ca5" stroke-width="1.51"/><path d="M544,705L581,857L691,693Z" fill="#64b0bd" stroke="#64b0bd" stroke-width="1.51"/><path d="M582,1005L605,1097L693,988Z" fill="#618cae" stroke="#618cae" stroke-width="1.51"/><path d="M581,857L582,1005L693,988Z" fill="#6196b2" stroke="#6196b2" stroke-width="1.51"/><path d="M608,53L691,93L696,-13Z" fill="#addeb7" stroke="#addeb7" stroke-width="1.51"/><path d="M602,359L623,531L705,495Z" fill="#72c7be" stroke="#72c7be" stroke-width="1.51"/><path d="M623,531L544,705L691,693Z" fill="#66babe" stroke="#66babe" stroke-width="1.51"/><path d="M608,53L582,212L691,93Z" fill="#aaddb7" stroke="#aaddb7" stroke-width="1.51"/><path d="M565,-92L608,53L696,-13Z" fill="#b8e2b6" stroke="#b8e2b6" stroke-width="1.51"/><path d="M582,212L440,258L602,359Z" fill="#9ad6b9" stroke="#9ad6b9" stroke-width="1.51"/><path d="M412,96L582,212L608,53Z" fill="#b4e1b6" stroke="#b4e1b6" stroke-width="1.51"/><path d="M605,1097L475,1168L611,1292Z" fill="#6880a4" stroke="#6880a4" stroke-width="1.51"/><path d="M478,563L544,705L623,531Z" fill="#73c1be" stroke="#73c1be" stroke-width="1.51"/><path d="M602,359L453,406L623,531Z" fill="#81ccbc" stroke="#81ccbc" stroke-width="1.51"/><path d="M453,406L478,563L623,531Z" fill="#7fcabd" stroke="#7fcabd" stroke-width="1.51"/><path d="M581,857L459,999L582,1005Z" fill="#6c99b1" stroke="#6c99b1" stroke-width="1.51"/><path d="M565,-92L405,-35L608,53Z" fill="#c3e6b5" stroke="#c3e6b5" stroke-width="1.51"/><path d="M405,-35L412,96L608,53Z" fill="#c3e7b5" stroke="#c3e7b5" stroke-width="1.51"/><path d="M475,1168L464,1338L611,1292Z" fill="#677c97" stroke="#677c97" stroke-width="1.51"/><path d="M582,1005L459,999L605,1097Z" fill="#6c90ae" stroke="#6c90ae" stroke-width="1.51"/><path d="M440,258L453,406L602,359Z" fill="#93d4b9" stroke="#93d4b9" stroke-width="1.51"/><path d="M459,999L475,1168L605,1097Z" fill="#718bab" stroke="#718bab" stroke-width="1.51"/><path d="M544,705L395,816L581,857Z" fill="#73afba" stroke="#73afba" stroke-width="1.51"/><path d="M395,816L459,999L581,857Z" fill="#75a3b4" stroke="#75a3b4" stroke-width="1.51"/><path d="M412,96L440,258L582,212Z" fill="#b0dfb7" stroke="#b0dfb7" stroke-width="1.51"/><path d="M478,563L398,647L544,705Z" fill="#7cc0bd" stroke="#7cc0bd" stroke-width="1.51"/><path d="M557,-172L479,-225L565,-92Z" fill="#cbeabd" stroke="#cbeabd" stroke-width="1.51"/><path d="M479,-225L405,-35L565,-92Z" fill="#ceebb8" stroke="#ceebb8" stroke-width="1.51"/><path d="M169,-242L270,-178L479,-225Z" fill="#e4f5bf" stroke="#e4f5bf" stroke-width="1.51"/><path d="M398,647L395,816L544,705Z" fill="#7cbabc" stroke="#7cbabc" stroke-width="1.51"/><path d="M254,882L302,1032L395,816Z" fill="#88a7b3" stroke="#88a7b3" stroke-width="1.51"/><path d="M240,422L250,577L453,406Z" fill="#9bd4bb" stroke="#9bd4bb" stroke-width="1.51"/><path d="M395,816L302,1032L459,999Z" fill="#80a0b0" stroke="#80a0b0" stroke-width="1.51"/><path d="M459,999L302,1032L475,1168Z" fill="#7e92ab" stroke="#7e92ab" stroke-width="1.51"/><path d="M302,1032L267,1186L475,1168Z" fill="#858da8" stroke="#858da8" stroke-width="1.51"/><path d="M283,1311L464,1338L475,1168Z" fill="#748095" stroke="#748095" stroke-width="1.51"/><path d="M267,1186L283,1311L475,1168Z" fill="#7e869d" stroke="#7e869d" stroke-width="1.51"/><path d="M453,406L250,577L478,563Z" fill="#8ecfbc" stroke="#8ecfbc" stroke-width="1.51"/><path d="M250,577L398,647L478,563Z" fill="#8cc9bc" stroke="#8cc9bc" stroke-width="1.51"/><path d="M270,-178L405,-35L479,-225Z" fill="#dbf1ba" stroke="#dbf1ba" stroke-width="1.51"/><path d="M412,96L297,138L440,258Z" fill="#bfe5b5" stroke="#bfe5b5" stroke-width="1.51"/><path d="M440,258L240,422L453,406Z" fill="#a0d8b8" stroke="#a0d8b8" stroke-width="1.51"/><path d="M277,647L395,816L398,647Z" fill="#89c0bc" stroke="#89c0bc" stroke-width="1.51"/><path d="M270,-178L259,-70L405,-35Z" fill="#def2b4" stroke="#def2b4" stroke-width="1.51"/><path d="M297,138L265,194L440,258Z" fill="#bee5b6" stroke="#bee5b6" stroke-width="1.51"/><path d="M265,194L240,422L440,258Z" fill="#afdfb7" stroke="#afdfb7" stroke-width="1.51"/><path d="M250,577L277,647L398,647Z" fill="#90c9bc" stroke="#90c9bc" stroke-width="1.51"/><path d="M259,-70L297,138L405,-35Z" fill="#d5eeb3" stroke="#d5eeb3" stroke-width="1.51"/><path d="M405,-35L297,138L412,96Z" fill="#cceab4" stroke="#cceab4" stroke-width="1.51"/><path d="M277,647L254,882L395,816Z" fill="#8ab8ba" stroke="#8ab8ba" stroke-width="1.51"/><path d="M-175,-201L1,-187L169,-242Z" fill="#f5fbc2" stroke="#f5fbc2" stroke-width="1.51"/><path d="M144,654L123,883L254,882Z" fill="#94b8b7" stroke="#94b8b7" stroke-width="1.51"/><path d="M112,239L161,370L265,194Z" fill="#bce4b6" stroke="#bce4b6" stroke-width="1.51"/><path d="M161,370L240,422L265,194Z" fill="#b0dfb7" stroke="#b0dfb7" stroke-width="1.51"/><path d="M144,654L254,882L277,647Z" fill="#91c1bb" stroke="#91c1bb" stroke-width="1.51"/><path d="M125,1246L-32,1305L283,1311Z" fill="#868592" stroke="#868592" stroke-width="1.51"/><path d="M259,-70L184,118L297,138Z" fill="#d5efb3" stroke="#d5efb3" stroke-width="1.51"/><path d="M254,882L171,1011L302,1032Z" fill="#8ca0af" stroke="#8ca0af" stroke-width="1.51"/><path d="M170,1123L267,1186L302,1032Z" fill="#8b91a8" stroke="#8b91a8" stroke-width="1.51"/><path d="M171,1011L170,1123L302,1032Z" fill="#8e98ab" stroke="#8e98ab" stroke-width="1.51"/><path d="M185,-105L259,-70L270,-178Z" fill="#e4f4b6" stroke="#e4f4b6" stroke-width="1.51"/><path d="M267,1186L125,1246L283,1311Z" fill="#848698" stroke="#848698" stroke-width="1.51"/><path d="M184,118L265,194L297,138Z" fill="#cbeab4" stroke="#cbeab4" stroke-width="1.51"/><path d="M240,422L91,512L250,577Z" fill="#9fd5bb" stroke="#9fd5bb" stroke-width="1.51"/><path d="M185,-105L184,118L259,-70Z" fill="#def3b3" stroke="#def3b3" stroke-width="1.51"/><path d="M250,577L144,654L277,647Z" fill="#96cabc" stroke="#96cabc" stroke-width="1.51"/><path d="M123,883L171,1011L254,882Z" fill="#91a8b1" stroke="#91a8b1" stroke-width="1.51"/><path d="M169,-242L185,-105L270,-178Z" fill="#e9f6bb" stroke="#e9f6bb" stroke-width="1.51"/><path d="M170,1123L125,1246L267,1186Z" fill="#8c8ca2" stroke="#8c8ca2" stroke-width="1.51"/><path d="M184,118L112,239L265,194Z" fill="#c9e9b4" stroke="#c9e9b4" stroke-width="1.51"/><path d="M91,512L144,654L250,577Z" fill="#9cd0bc" stroke="#9cd0bc" stroke-width="1.51"/><path d="M161,370L91,512L240,422Z" fill="#a9daba" stroke="#a9daba" stroke-width="1.51"/><path d="M24,663L-28,819L123,883Z" fill="#9cbdba" stroke="#9cbdba" stroke-width="1.51"/><path d="M24,663L123,883L144,654Z" fill="#9ac3ba" stroke="#9ac3ba" stroke-width="1.51"/><path d="M123,883L26,950L171,1011Z" fill="#95a7b0" stroke="#95a7b0" stroke-width="1.51"/><path d="M-24,-68L-36,78L184,118Z" fill="#e3f4b3" stroke="#e3f4b3" stroke-width="1.51"/><path d="M169,-242L1,-187L185,-105Z" fill="#eef8bb" stroke="#eef8bb" stroke-width="1.51"/><path d="M1,-187L-24,-68L185,-105Z" fill="#eff9b6" stroke="#eff9b6" stroke-width="1.51"/><path d="M-24,-68L184,118L185,-105Z" fill="#e4f5b2" stroke="#e4f5b2" stroke-width="1.51"/><path d="M26,950L170,1123L171,1011Z" fill="#949dac" stroke="#949dac" stroke-width="1.51"/><path d="M-36,78L112,239L184,118Z" fill="#d6efb3" stroke="#d6efb3" stroke-width="1.51"/><path d="M-27,1168L125,1246L170,1123Z" fill="#938ea3" stroke="#938ea3" stroke-width="1.51"/><path d="M26,950L-27,1168L170,1123Z" fill="#9899aa" stroke="#9899aa" stroke-width="1.51"/><path d="M-36,78L-26,215L112,239Z" fill="#d4eeb7" stroke="#d4eeb7" stroke-width="1.51"/><path d="M91,512L24,663L144,654Z" fill="#a1cfbb" stroke="#a1cfbb" stroke-width="1.51"/><path d="M112,239L-42,404L161,370Z" fill="#b8e2b6" stroke="#b8e2b6" stroke-width="1.51"/><path d="M-42,404L91,512L161,370Z" fill="#b0dcb9" stroke="#b0dcb9" stroke-width="1.51"/><path d="M-22,526L24,663L91,512Z" fill="#a5d4be" stroke="#a5d4be" stroke-width="1.51"/><path d="M-26,215L-42,404L112,239Z" fill="#c3e6b9" stroke="#c3e6b9" stroke-width="1.51"/><path d="M-27,1168L-32,1305L125,1246Z" fill="#908b9c" stroke="#908b9c" stroke-width="1.51"/><path d="M-28,819L26,950L123,883Z" fill="#9ab0b4" stroke="#9ab0b4" stroke-width="1.51"/><path d="M-42,404L-22,526L91,512Z" fill="#addbbe" stroke="#addbbe" stroke-width="1.51"/><path d="M-197,724L-135,823L-28,819Z" fill="#a0bfc3" stroke="#a0bfc3" stroke-width="1.51"/><path d="M-197,724L-28,819L24,663Z" fill="#a0c5c2" stroke="#a0c5c2" stroke-width="1.51"/><path d="M-22,526L-121,521L24,663Z" fill="#a7d5c1" stroke="#a7d5c1" stroke-width="1.51"/><path d="M-28,819L-135,823L26,950Z" fill="#9cb4ba" stroke="#9cb4ba" stroke-width="1.51"/><path d="M-135,823L-203,962L26,950Z" fill="#9daebc" stroke="#9daebc" stroke-width="1.51"/><path d="M-203,962L-140,1122L26,950Z" fill="#9ba2b7" stroke="#9ba2b7" stroke-width="1.51"/><path d="M-140,1122L-27,1168L26,950Z" fill="#9a9ab0" stroke="#9a9ab0" stroke-width="1.51"/><path d="M-121,521L-197,724L24,663Z" fill="#a6d0c5" stroke="#a6d0c5" stroke-width="1.51"/><path d="M-157,1243L-32,1305L-27,1168Z" fill="#928ca2" stroke="#928ca2" stroke-width="1.51"/><path d="M-188,357L-42,404L-26,215Z" fill="#bfe5c0" stroke="#bfe5c0" stroke-width="1.51"/><path d="M-129,199L-188,357L-26,215Z" fill="#cbeac1" stroke="#cbeac1" stroke-width="1.51"/><path d="M-36,78L-129,199L-26,215Z" fill="#d8f0bb" stroke="#d8f0bb" stroke-width="1.51"/><path d="M-42,404L-121,521L-22,526Z" fill="#aedbc2" stroke="#aedbc2" stroke-width="1.51"/><path d="M-175,-201L-24,-68L1,-187Z" fill="#f5fac0" stroke="#f5fac0" stroke-width="1.51"/><path d="M-208,-29L-195,57L-36,78Z" fill="#e9f7c0" stroke="#e9f7c0" stroke-width="1.51"/><path d="M-208,-29L-36,78L-24,-68Z" fill="#ebf7bb" stroke="#ebf7bb" stroke-width="1.51"/><path d="M-175,-201L-208,-29L-24,-68Z" fill="#f4fbc0" stroke="#f4fbc0" stroke-width="1.51"/><path d="M-140,1122L-157,1243L-27,1168Z" fill="#9890ad" stroke="#9890ad" stroke-width="1.51"/><path d="M-195,57L-129,199L-36,78Z" fill="#e1f3be" stroke="#e1f3be" stroke-width="1.51"/><path d="M-188,357L-121,521L-42,404Z" fill="#b5dfc4" stroke="#b5dfc4" stroke-width="1.51"/><path d="M-188,357L-197,724L-121,521Z" fill="#acdaca" stroke="#acdaca" stroke-width="1.51"/><path d="M-195,57L-188,357L-129,199Z" fill="#d5eec3" stroke="#d5eec3" stroke-width="1.51"/><path d="M-197,724L-203,962L-135,823Z" fill="#a0b9c5" stroke="#a0b9c5" stroke-width="1.51"/><path d="M-203,962L-157,1243L-140,1122Z" fill="#9c97b6" stroke="#9c97b6" stroke-width="1.51"/><path d="M-195,57L-208,-29L-188,357Z" fill="#e2f4c3" stroke="#e2f4c3" stroke-width="1.51"/><path d="M-208,-29L-197,724L-188,357Z" fill="#bfe5c8" stroke="#bfe5c8" stroke-width="1.51"/><path d="M-208,-29L-203,962L-197,724Z" fill="#acd9cc" stroke="#acd9cc" stroke-width="1.51"/></svg>