<svg xmlns="http://www.w3.org/2000/svg" viewBox="0 0 75.52 78.19"><defs><style>.cls-1{fill:#333;}</style></defs><title>Ativo 1</title><g id="Camada_2" data-name="Camada 2"><g id="Camada_1-2" data-name="Camada 1"><path class="cls-1" d="M74.22,1.21a4.24,4.24,0,0,1,1.29,3.11,4.24,4.24,0,0,1-1.29,3.11L63.52,18.21a4.14,4.14,0,0,1-3,1.29,4.42,4.42,0,0,1-4.4-4.4A4.06,4.06,0,0,1,57.39,12L68.09,1.21a4.49,4.49,0,0,1,6.13,0ZM20.8,48.85a4.15,4.15,0,0,1,3.06-1.21,4.15,4.15,0,0,1,3.06,1.21A4.24,4.24,0,0,1,28.22,52a3.89,3.89,0,0,1-1.29,3.11L7.42,74.74A4.14,4.14,0,0,1,4.4,76a4.24,4.24,0,0,1-3.11-1.29A4.24,4.24,0,0,1,0,71.63a4.06,4.06,0,0,1,1.29-3.11L20.8,48.85ZM39.61,34.52A5.38,5.38,0,0,0,38,30.64a5.55,5.55,0,0,0-9.45,3.88,3.27,3.27,0,0,1-.95,2.42,3.33,3.33,0,0,1-4.66,0A3.27,3.27,0,0,1,22,34.52a12.25,12.25,0,0,1,3.54-8.63,12.22,12.22,0,0,1,3.84-2.59,12.13,12.13,0,0,1,9.41,0,12.22,12.22,0,0,1,3.84,2.59,12.25,12.25,0,0,1,3.54,8.63,3.27,3.27,0,0,1-.95,2.42,3.33,3.33,0,0,1-4.66,0A3.27,3.27,0,0,1,39.61,34.52ZM34.09,9.58a23.49,23.49,0,0,1,9.41,1.9,24.07,24.07,0,0,1,7.68,5.22,24.83,24.83,0,0,1,5.18,7.77,23.8,23.8,0,0,1,1.9,9.45,25.16,25.16,0,0,1-1.47,8.46,1.84,1.84,0,0,1-.35.6q-.95,1.81-1.9,3.37-.86,1.38-1.86,2.89a28.25,28.25,0,0,1-1.86,2.55,3.41,3.41,0,0,1-.43.52,5.63,5.63,0,0,0-.52.6,15.07,15.07,0,0,0-1.77,2.37,6.42,6.42,0,0,0-.47,3.24q.17,4.66.09,6.86a23.31,23.31,0,0,1-.35,3.5,10.59,10.59,0,0,1-3.93,6.9q-3.15,2.42-8.76,2.42h-.17a3.65,3.65,0,0,1-2.68-1.12,4.07,4.07,0,0,1-1.21-2.76,3,3,0,0,1,.22-1.51,3.78,3.78,0,0,1,.82-1.25,3.52,3.52,0,0,1,2.76-1.29,14.46,14.46,0,0,0,2.8-.35,5.1,5.1,0,0,0,1.51-.6,1.52,1.52,0,0,0,.65-.73,6.82,6.82,0,0,0,.22-.82l.09-.43A21.94,21.94,0,0,0,39.87,64q0-2.42-.09-5.26a14.48,14.48,0,0,1,1.29-6.9,11.76,11.76,0,0,1,1.38-2.29q.78-1,1.55-1.86a9.87,9.87,0,0,0,.78-.95A15.65,15.65,0,0,0,46,45.09L47.29,43Q48,41.94,48.55,41t1-1.68a14.36,14.36,0,0,0,.65-2.55,17.6,17.6,0,0,0,.22-2.8,16,16,0,0,0-1.29-6.39,16.29,16.29,0,0,0-8.67-8.72,16.19,16.19,0,0,0-12.69,0,16.29,16.29,0,0,0-8.67,8.72,16,16,0,0,0-1.29,6.39,3.9,3.9,0,0,1-1.12,2.8,3.68,3.68,0,0,1-2.76,1.17,4,4,0,0,1-4-4,23.8,23.8,0,0,1,1.9-9.45A24.82,24.82,0,0,1,17,16.7a24.07,24.07,0,0,1,7.68-5.22A23.49,23.49,0,0,1,34.09,9.58Z"/></g></g></svg>